<svg xmlns="http://www.w3.org/2000/svg" width="662" height="97" viewBox="0 0 662 97" fill="none">
  <path d="M0 64.8656H16.5436C17.0374 68.5693 18.5601 71.8204 21.1116 74.6189C23.7454 77.4173 27.2022 79.5984 31.4822 81.1622C35.7621 82.6437 40.7005 83.3845 46.2973 83.3845C54.6102 83.3845 61.1947 82.1087 66.0508 79.5572C70.9069 76.9234 73.3349 73.3843 73.3349 68.9397C73.3349 65.3182 71.9357 62.6021 69.1373 60.7914C66.3389 58.9807 61.277 57.6226 53.9518 56.7172L33.9513 54.1246C22.7577 52.6431 14.6094 49.8858 9.50638 45.8528C4.48569 41.7375 1.97535 35.9349 1.97535 28.445C1.97535 22.7659 3.66263 17.8687 7.03719 13.7534C10.4941 9.55573 15.3501 6.34579 21.6054 4.12352C27.8607 1.81894 35.1859 0.666656 43.5812 0.666656C51.8941 0.666656 59.2605 1.90125 65.6804 4.37044C72.1003 6.83963 77.2033 10.2965 80.9894 14.741C84.8578 19.1033 86.9566 24.2474 87.2858 30.1735H70.7422C70.3307 26.8812 68.9315 24.0416 66.5446 21.6548C64.2401 19.2679 61.1124 17.416 57.1617 16.0991C53.211 14.6999 48.5607 14.0003 43.2108 14.0003C35.6386 14.0003 29.5891 15.2349 25.0623 17.7041C20.5354 20.1732 18.272 23.5478 18.272 27.8277C18.272 31.12 19.5889 33.6715 22.2227 35.4822C24.9388 37.2106 29.6303 38.5275 36.2971 39.4329L56.5444 42.2725C64.8573 43.4248 71.4007 44.9886 76.1745 46.9639C81.0305 48.857 84.4874 51.4496 86.5451 54.7419C88.6027 57.9518 89.6315 62.1083 89.6315 67.2113C89.6315 73.1373 87.8208 78.3226 84.1993 82.7672C80.5779 87.2117 75.4749 90.6686 68.8904 93.1378C62.3882 95.5247 54.7748 96.7181 46.0504 96.7181C37.1613 96.7181 29.301 95.4012 22.4696 92.7674C15.7205 90.0513 10.3706 86.3064 6.41989 81.5326C2.46919 76.7588 0.329225 71.2031 0 64.8656Z" fill="#111111"/>
  <path d="M104.784 94.9897V2.39509H121.081V81.2857L116.143 78.1992L178.119 2.39509H195.774L119.352 94.9897H104.784ZM148.859 48.4455L160.341 37.2106L197.132 94.9897H178.49L148.859 48.4455Z" fill="#111111"/>
  <path d="M207.506 2.39509H223.803V94.9897H207.506V2.39509Z" fill="#111111"/>
  <path d="M260.817 2.39509V87.7056L253.533 80.6684H323.287V94.9897H244.52V2.39509H260.817Z" fill="#111111"/>
  <path d="M351.964 2.39509V87.7056L344.68 80.6684H414.435V94.9897H335.668V2.39509H351.964Z" fill="#111111"/>
  <path d="M507.392 64.8656H490.849C490.355 68.5693 488.832 71.8204 486.281 74.6189C483.647 77.4173 480.19 79.5984 475.91 81.1622C471.63 82.6437 466.692 83.3845 461.095 83.3845C452.782 83.3845 446.197 82.1087 441.341 79.5572C436.485 76.9234 434.057 73.3843 434.057 68.9397C434.057 65.3182 435.457 62.6021 438.255 60.7914C441.053 58.9807 446.115 57.6226 453.44 56.7172L473.441 54.1246C484.634 52.6431 492.783 49.8858 497.886 45.8528C502.906 41.7375 505.417 35.9349 505.417 28.445C505.417 22.7659 503.73 17.8687 500.355 13.7534C496.898 9.55573 492.042 6.34579 485.787 4.12352C479.531 1.81894 472.206 0.666656 463.811 0.666656C455.498 0.666656 448.132 1.90125 441.712 4.37044C435.292 6.83963 430.189 10.2965 426.403 14.741C422.534 19.1033 420.436 24.2474 420.106 30.1735H436.65C437.061 26.8812 438.461 24.0416 440.848 21.6548C443.152 19.2679 446.28 17.416 450.23 16.0991C454.181 14.6999 458.831 14.0003 464.181 14.0003C471.754 14.0003 477.803 15.2349 482.33 17.7041C486.857 20.1732 489.12 23.5478 489.12 27.8277C489.12 31.12 487.803 33.6715 485.169 35.4822C482.453 37.2106 477.762 38.5275 471.095 39.4329L450.848 42.2725C442.535 43.4248 435.991 44.9886 431.218 46.9639C426.362 48.857 422.905 51.4496 420.847 54.7419C418.789 57.9518 417.761 62.1083 417.761 67.2113C417.761 73.1373 419.571 78.3226 423.193 82.7672C426.814 87.2117 431.917 90.6686 438.502 93.1378C445.004 95.5247 452.617 96.7181 461.342 96.7181C470.231 96.7181 478.091 95.4012 484.923 92.7674C491.672 90.0513 497.022 86.3064 500.972 81.5326C504.923 76.7588 507.063 71.2031 507.392 64.8656Z" fill="#111111"/>
  <path d="M544.274 85.8537V16.7164H556.62V85.8537H544.274ZM515.878 57.458V45.1121H595.521V57.458H515.878Z" fill="#111111"/>
  <path d="M620.833 85.8537V16.7164H633.179V85.8537H620.833ZM592.437 57.458V45.1121H661.575V57.458H592.437Z" fill="#111111"/>
</svg>